inDegrees=yes
name=ik_S55_A03_T02
DataType=double
version=3
OpenSimVersion=4.3-2021-08-27-4bc7ad9
endheader
time	pelvis_tilt	pelvis_list	pelvis_rotation	pelvis_tx	pelvis_ty	pelvis_tz	hip_flexion_r	hip_adduction_r	hip_rotation_r	knee_angle_r	knee_angle_r_beta	ankle_angle_r	subtalar_angle_r	mtp_angle_r	hip_flexion_l	hip_adduction_l	hip_rotation_l	knee_angle_l	knee_angle_l_beta	ankle_angle_l	subtalar_angle_l	mtp_angle_l	lumbar_extension	lumbar_bending	lumbar_rotation	arm_flex_r	arm_add_r	arm_rot_r	elbow_flex_r	pro_sup_r	wrist_flex_r	wrist_dev_r	arm_flex_l	arm_add_l	arm_rot_l	elbow_flex_l	pro_sup_l	wrist_flex_l	wrist_dev_l
10.55999999999986	1.045460840513603	6.100570033519015	100.3908411490343	0	0.9399999999999999	0	-9.736423786307235	4.304917187028686	-8.338274619622279	7.213298329877076	0.125895805784963	0	0	0	18.64751326998394	-4.881924503123941	-5.218554645258026	1.541927780577742	0.02691171659905027	0	0	0	0	0	0	30.46521713458207	-30.46521713458209	4.277564968712448	74.8412494948435	85.72243527135667	0	0	30.46521713458207	-30.46521713458209	4.277564968712448	74.8412494948435	85.72243527122089	0	0
10.57999999999986	1.07648040722595	6.161634931691424	100.4726553848103	0	0.9399999999999999	0	-10.32049177189654	4.218186693506314	-8.914242357669266	7.366418646994315	0.1285682594703567	0	0	0	18.5718791279944	-4.849833052225415	-5.124403014786788	1.797485999974605	0.03137204895805957	0	0	0	0	0	0	30.46640603321877	-30.46640603321879	4.277682344373525	74.84291872410161	85.72231789570169	0	0	30.46640603321877	-30.46640603321879	4.277682344373525	74.84291872410161	85.72231789556595	0	0
10.59999999999986	1.178590957851873	6.386496314156257	100.3426266203728	0	0.9399999999999999	0	-10.92220133850033	4.231795721741404	-9.702578250731653	7.247377893602069	0.1264906063796074	0	0	0	17.83721742229195	-4.65752954122778	-4.773440285405613	3.50103976550979	0.06110467115139605	0	0	0	0	0	0	30.47065676910946	-30.47065676910948	4.278103553339538	74.84890954797194	85.72189668675766	0	0	30.47065676910946	-30.47065676910948	4.278103553339538	74.84890954797194	85.72189668662195	0	0
10.61999999999986	1.17967383688149	6.471481050610399	100.2585842701453	0	0.9399999999999999	0	-11.42128495775141	3.78481874358923	-10.62684301243693	8.08493545512798	0.1411087435032095	0	0	0	16.87982761119703	-4.424287337892505	-4.232519766731365	3.516647726404666	0.06137708145853415	0	0	0	0	0	0	30.47477836730291	-30.47477836730293	4.278511879297618	74.85471703419385	85.72148836082089	0	0	30.47477836730291	-30.47477836730293	4.278511879297618	74.85471703419385	85.72148836068524	0	0
10.63999999999986	0.9280482474027515	6.733370231020225	100.1691074710336	0	0.9399999999999999	0	-12.02625544168642	2.72679540095765	-11.49262983217818	10.32867073736498	0.1802693117214094	0	0	0	15.52644161764259	-4.391711868827706	-4.711939473173484	4.312917140773086	0.07527460447219013	0	0	0	0	0	0	30.4800852516894	-30.48008525168941	4.279035932576731	74.86216951981864	85.7209643075691	0	0	30.4800852516894	-30.48008525168941	4.279035932576731	74.86216951981864	85.72096430743356	0	0
10.65999999999986	0.1540099509986947	6.738562860117896	100.4581319647413	0	0.9399999999999999	0	-12.30920988755356	1.665326228112931	-11.8936117807086	11.35567537346095	0.1981939240545302	0	0	0	14.52909243186759	-4.339183789913171	-6.990511283614788	5.430023937672102	0.09477179617448553	0	0	0	0	0	0	30.53467552156713	-30.53467552156715	4.283674209819273	74.92777058821973	85.71632603056312	0	0	30.53467552156713	-30.53467552156715	4.283674209819273	74.92777058821973	85.71632603042843	0	0
10.67999999999986	-0.7487958368858714	6.144433383968638	101.0873497138671	0	0.9399999999999999	0	-11.66959528657855	0.3425059712431667	-13.82868856600241	12.31261421983109	0.2148956576639255	0	0	0	14.10428016852706	-2.878530071287389	-5.550484982989178	5.494663220297353	0.09589996448242333	0	0	0	0	0	0	30.54222373795924	-30.54222373795926	4.284418509156692	74.93835342366619	85.71558173126459	0	0	30.54222373795924	-30.54222373795926	4.284418509156692	74.93835342366619	85.71558173113006	0	0
10.69999999999986	-1.376130133437741	5.432195563587692	101.7973438614822	0	0.9399999999999999	0	-10.23626776948785	-0.668184690072839	-15.9249183151358	13.30725319843193	0.2322553827091835	0	0	0	13.4780324872279	-1.143887828369452	-2.262518938605886	3.513520470477876	0.06132250054605916	0	0	0	0	0	0	30.55410883445412	-30.55410883445413	4.285543018080533	74.95431892266704	85.71445722239905	0	0	30.55410883445412	-30.55410883445413	4.285543018080533	74.95431892266704	85.71445722226473	0	0
10.71999999999986	-1.56618034023621	5.13738411993662	102.1105928999506	0	0.9399999999999999	0	-8.766703591469303	-1.879577797468498	-17.27002547237765	15.8999298334835	0.2775061264303609	0	0	0	12.61971884596528	-1.164401237013881	-2.862071014778515	2.754839531502096	0.04808102018880962	0	0	0	0	0	0	30.55960581522874	-30.55960581522876	4.286080934966098	74.96196500902946	85.71391930554155	0	0	30.55960581522874	-30.55960581522876	4.286080934966098	74.96196500902946	85.71391930540736	0	0
10.73999999999986	-1.836088827635531	4.873315056294498	102.5387621037411	0	0.9399999999999999	0	-6.856043971850069	-3.596184972320488	-17.03991051778923	21.99181069015637	0.3838295050185153	0	0	0	11.56192491700264	-1.166828063422972	-4.755817361555894	4.183312154515011	0.07301257073498472	0	0	0	0	0	0	30.66905730493984	-30.66905730493987	4.295311133904815	75.09247087848649	85.70468910707298	0	0	30.66905730493984	-30.66905730493987	4.295311133904815	75.09247087848649	85.70468910694053	0	0
10.75999999999986	-2.796857084924188	4.670570772863635	102.9691633025147	0	0.9399999999999999	0	-4.496946666171961	-5.392980868362841	-15.88035402317524	27.4518613663734	0.4791253666442453	0	0	0	11.5464215758254	-0.127570171946702	-4.617039160943119	4.200414611108485	0.07331106491272024	0	0	0	0	0	0	30.80221315982763	-30.80221315982764	4.306404801140705	75.24924840911923	85.69359544040087	0	0	30.80221315982763	-30.80221315982764	4.306404801140705	75.24924840911923	85.69359544027049	0	0
10.77999999999986	-3.679882039913787	4.714936668439921	103.2041259815259	0	0.9399999999999999	0	-2.161669865075833	-7.069843633068122	-13.71357032477577	32.25610724789841	0.562975275352234	0	0	0	9.026708518906267	1.327158683416734	-8.777839680559868	4.554841064257368	0.07949697347633368	0	0	0	0	0	0	30.8437030358009	-30.84370303580092	4.309939916410914	75.2992473107675	85.69006032531102	0	0	30.8437030358009	-30.84370303580092	4.309939916410914	75.2992473107675	85.69006032518128	0	0
10.79999999999986	-4.768434466154378	5.034529124201012	103.5845447351574	0	0.9399999999999999	0	1.962961432565047	-8.74411780213314	-11.59058979380744	39.48194411526885	0.689089919899841	0	0	0	8.410074427459161	2.370089090015775	-8.916453011144949	5.312845271938865	0.09272664264434669	0	0	0	0	0	0	30.96103584193438	-30.9610358419344	4.319618307795065	75.43597381082597	85.68038193441789	0	0	30.96103584193438	-30.9610358419344	4.319618307795065	75.43597381082597	85.68038193429001	0	0
10.81999999999986	-5.746320707509809	5.52844307901745	104.1587738686348	0	0.9399999999999999	0	3.069019505412161	-9.657405392390688	-13.1509788528172	42.50813200655796	0.7419068623868204	0	0	0	6.285019446636576	3.600078537678899	-8.827361070903139	4.909579579823602	0.08568832855660162	0	0	0	0	0	0	31.01336202692037	-31.01336202692038	4.323910552371227	75.49659362079969	85.6760896900592	0	0	31.01336202692037	-31.01336202692038	4.323910552371227	75.49659362079969	85.67608968993204	0	0
10.83999999999986	-6.18083983639327	5.825484816081236	104.5871071068795	0	0.9399999999999999	0	3.981456858647511	-10.49734075550576	-15.26527504507673	44.72041434162212	0.7805184731173983	0	0	0	4.893993333745064	4.338698532215508	-5.768568086278194	4.159724274569226	0.07260088456636561	0	0	0	0	0	0	31.02924096253737	-31.02924096253739	4.325353114402707	75.51703645333201	85.674647128102	0	0	31.02924096253737	-31.02924096253739	4.325353114402707	75.51703645333201	85.67464712797511	0	0
10.85999999999986	-6.182677912839506	5.814916642963182	104.7053246491924	0	0.9399999999999999	0	5.179359619048368	-11.05843028054031	-16.89535869613238	44.00816127558154	0.7680873120075655	0	0	0	4.864076400980977	4.344894335046043	-5.781623752681	4.821663411022291	0.08415390194527962	0	0	0	0	0	0	31.08049840846167	-31.08049840846169	4.329586918771107	75.57684809634388	85.67041332394835	0	0	31.08049840846167	-31.08049840846169	4.329586918771107	75.57684809634388	85.67041332382229	0	0
10.87999999999986	-5.961902664601792	5.720316106435412	104.9285295847757	0	0.9399999999999999	0	6.835570663630996	-10.8576376084882	-16.58862473821172	44.28138843807622	0.7728560255989793	0	0	0	4.118279736496037	4.132890258753581	-4.581194792130439	4.29719053537506	0.07500012342783266	0	0	0	0	0	0	31.12288953357174	-31.12288953357177	4.333175158785965	75.62757072533402	85.6668250841161	0	0	31.12288953357174	-31.12288953357177	4.333175158785965	75.62757072533402	85.66682508399069	0	0
10.89999999999986	-5.714009621270399	5.647319737668701	105.1289677590473	0	0.9399999999999999	0	8.578174369396571	-10.51686893424086	-14.86020776799526	44.27274667640268	0.7727051984046032	0	0	0	2.734639590243926	3.251853086707425	-5.005175457012513	4.533693077740909	0.07912787148145412	0	0	0	0	0	0	31.15948407509352	-31.15948407509353	4.336184084989729	75.670071653817	85.66381615806486	0	0	31.15948407509352	-31.15948407509353	4.336184084989729	75.670071653817	85.66381615794005	0	0
10.91999999999986	-5.568781478859848	5.669103075892951	105.2286080970771	0	0.9399999999999999	0	8.671993836183134	-10.15139986855415	-15.22400470003613	41.8447830599769	0.7303292391793447	0	0	0	1.901639203969915	3.225086383037729	-4.440956838439967	4.184044293983787	0.07302534897929865	0	0	0	0	0	0	31.16462548796566	-31.16462548796568	4.336672624460611	75.6770028070482	85.66332761861925	0	0	31.16462548796566	-31.16462548796568	4.336672624460611	75.6770028070482	85.66332761849448	0	0
10.93999999999986	-5.61365219923769	5.926332038433689	105.2593821097971	0	0.9399999999999999	0	10.18125138293131	-9.818080071690728	-13.18993659896776	40.7826182872186	0.7117909666960152	0	0	0	0.8353268512253773	3.292343920014211	-4.491613380407134	4.102753063776646	0.07160654935918738	0	0	0	0	0	0	31.19314247708364	-31.19314247708366	4.339037522996751	75.71041550652039	85.66096272020319	0	0	31.19314247708364	-31.19314247708366	4.339037522996751	75.71041550652039	85.66096272007887	0	0
10.95999999999986	-5.735217556192966	6.266030229579818	105.2846612842601	0	0.9399999999999999	0	11.37784061114553	-9.44100926802939	-11.47769983739787	40.58683319775703	0.708373872258599	0	0	0	-0.2757567297182998	3.53301609054513	-4.488941083241663	4.123822746361484	0.07197428469264291	0	0	0	0	0	0	31.19672968869066	-31.19672968869068	4.339379155071009	75.71526243589193	85.66062108814666	0	0	31.19672968869066	-31.19672968869068	4.339379155071009	75.71526243589193	85.66062108802238	0	0
10.97999999999985	-5.831432682752278	6.5113961776855	105.274830572834	0	0.9399999999999999	0	12.58068662658805	-8.55539299533009	-10.2265713988221	36.65311211596777	0.6397174875262632	0	0	0	-1.224171360193056	3.64232209118842	-5.051458843281882	4.330145023017081	0.07557528774049371	0	0	0	0	0	0	31.23099707080728	-31.23099707080731	4.342216169804457	75.75534263342914	85.65778407355721	0	0	31.23099707080728	-31.23099707080731	4.342216169804457	75.75534263342914	85.65778407343346	0	0
10.99999999999985	-5.925441876080521	6.730793550239199	105.2506060763733	0	0.9399999999999999	0	13.43093307844906	-8.081288258127691	-9.024422274344561	35.71512285135359	0.6233464865103855	0	0	0	-2.045849865429886	3.777992108322255	-5.50675870965751	4.848182753468951	0.08461675178643772	0	0	0	0	0	0	31.2374861618895	-31.23748616188952	4.342834123581238	75.76410936085573	85.65716611981247	0	0	31.2374861618895	-31.23748616188952	4.342834123581238	75.76410936085573	85.65716611968884	0	0
11.01999999999985	-5.913254636328713	6.731255801669505	105.2723705519726	0	0.9399999999999999	0	14.25171099784879	-7.966964594723569	-8.118362272374657	36.58673821591439	0.6385590444329422	0	0	0	-2.602653412719232	4.063388383551826	-5.055588736072972	4.145092009378227	0.07234550336175773	0	0	0	0	0	0	31.24313774583182	-31.24313774583185	4.343371573318607	75.77173362698173	85.65662867010299	0	0	31.24313774583182	-31.24313774583185	4.343371573318607	75.77173362698173	85.65662866997941	0	0
